<?xml version="1.0" standalone="no"?>
<!DOCTYPE svg PUBLIC "-//W3C//DTD SVG 20010904//EN"
 "http://www.w3.org/TR/2001/REC-SVG-20010904/DTD/svg10.dtd">
<svg version="1.0" xmlns="http://www.w3.org/2000/svg"
 width="1000.000000pt" height="1000.000000pt" viewBox="0 0 1000.000000 1000.000000"
 preserveAspectRatio="xMidYMid meet">

<g transform="translate(0.000000,1000.000000) scale(0.100000,-0.100000)"
fill="#000000" stroke="none">
<path d="M6235 7514 c-16 -2 -73 -9 -125 -15 -312 -35 -724 -172 -1009 -334
l-80 -45 -123 64 c-230 120 -475 203 -738 249 -103 18 -163 21 -340 21 -195 0
-227 -2 -343 -27 -489 -104 -846 -337 -1058 -689 -99 -164 -145 -394 -105
-516 40 -118 165 -155 200 -58 4 11 -1 57 -11 103 -15 71 -15 93 -5 153 17
100 52 161 142 250 43 43 87 95 98 116 29 57 47 69 157 104 87 28 121 33 265
40 145 8 178 13 270 42 96 30 116 33 235 33 134 0 315 -25 478 -66 105 -26
427 -166 427 -185 0 -3 -29 -42 -64 -87 -179 -230 -304 -477 -415 -820 -105
-325 -139 -577 -128 -967 19 -642 146 -1158 423 -1711 194 -388 429 -651 611
-685 50 -9 83 9 83 45 0 22 -26 60 -116 167 -104 124 -114 139 -93 142 61 10
93 60 132 206 13 50 29 92 35 94 17 5 26 -100 12 -145 -20 -61 -56 -126 -95
-173 -40 -48 -42 -74 -5 -78 35 -4 84 29 103 71 37 78 70 230 71 327 1 90 2
95 23 98 17 3 27 -6 44 -40 19 -38 21 -53 16 -140 -10 -162 -47 -272 -114
-335 -28 -27 -32 -36 -23 -52 5 -11 10 -29 10 -40 0 -12 8 -29 19 -40 12 -12
18 -31 17 -57 -1 -38 0 -39 39 -42 89 -7 272 94 408 227 293 283 470 692 618
1426 40 197 43 219 41 359 -1 130 0 147 13 136 8 -7 15 -21 15 -31 0 -12 5
-16 14 -13 9 3 59 -34 129 -97 148 -131 230 -185 380 -249 l122 -53 150 8 c82
5 206 9 275 10 150 2 173 7 189 41 9 21 9 31 -3 49 -16 24 -36 33 -141 64 -44
13 -90 36 -123 61 -29 22 -57 40 -63 40 -6 0 -34 16 -61 37 -47 34 -128 64
-223 82 -22 4 -71 19 -110 34 -38 14 -97 35 -130 47 -40 15 -94 24 -160 28
-69 3 -119 12 -162 28 l-62 23 -6 -29 c-4 -17 -12 -30 -20 -30 -10 0 -11 48
-7 243 8 391 -15 552 -127 887 -128 381 -201 518 -388 726 -155 172 -192 219
-175 223 9 1 130 47 267 101 373 147 524 180 816 180 245 -1 369 -29 491 -114
71 -49 109 -97 147 -191 31 -78 51 -96 81 -77 30 18 55 15 68 -10 6 -13 25
-95 42 -183 40 -206 37 -197 59 -185 16 8 22 0 45 -64 32 -86 60 -123 82 -105
34 28 49 118 49 294 0 148 -3 180 -23 249 -48 166 -130 296 -281 446 -199 198
-424 321 -687 374 -142 29 -358 42 -469 30z m-1074 -1182 c100 -103 228 -276
215 -289 -3 -4 -36 4 -72 17 -56 19 -71 21 -103 11 -21 -6 -56 -11 -77 -11
-22 0 -48 -6 -59 -13 -14 -9 -47 -12 -105 -9 -47 2 -116 4 -153 3 l-68 0 22
37 c70 117 262 362 284 362 7 0 59 -48 116 -108z m428 -835 c91 -342 138 -588
183 -957 29 -246 33 -759 6 -910 -35 -197 -98 -368 -194 -529 -53 -90 -189
-264 -249 -321 l-38 -35 7 35 c34 165 38 207 38 370 0 96 -7 276 -15 400 -9
124 -19 281 -22 350 -3 69 -13 180 -21 248 -8 68 -19 286 -24 485 -8 284 -15
404 -35 557 -13 107 -25 216 -25 241 0 44 2 47 31 53 43 8 155 83 230 154 35
33 67 57 71 54 4 -4 29 -91 57 -195z m-807 49 c40 -19 100 -40 133 -47 33 -6
63 -15 66 -18 4 -3 -8 -87 -27 -186 -63 -338 -68 -411 -68 -920 -1 -446 0
-466 26 -645 59 -406 42 -671 -47 -765 -55 -59 -72 -51 -143 68 -111 187 -172
345 -219 566 -36 173 -39 447 -6 686 42 297 46 381 47 830 1 424 3 459 31 542
3 8 27 -3 69 -33 36 -24 98 -60 138 -78z"/>
<path d="M2956 6197 c57 -95 193 -272 224 -292 20 -13 47 -40 59 -59 31 -50
109 -116 176 -150 l58 -29 111 24 c61 12 144 24 185 25 84 3 121 26 121 75 0
32 -9 40 -73 63 -33 12 -55 29 -70 52 -12 19 -26 34 -32 34 -5 0 -23 16 -38
35 -17 21 -37 35 -50 35 -13 0 -28 5 -33 10 -6 6 -25 12 -43 15 -17 2 -60 17
-95 34 -54 27 -74 31 -143 31 -84 0 -73 -3 -341 101 -18 7 -21 6 -16 -4z"/>
<path d="M6904 6015 c-36 -36 -40 -38 -138 -55 -33 -5 -66 -17 -75 -25 -70
-66 -108 -95 -131 -100 -30 -7 -67 -43 -95 -92 -11 -18 -32 -37 -47 -44 -69
-28 -93 -66 -65 -102 11 -15 109 -38 264 -62 55 -9 144 10 215 46 69 35 89 68
123 203 13 50 32 111 43 135 23 50 16 90 -21 116 -29 21 -33 20 -73 -20z"/>
<path d="M3390 4879 c-30 -11 -74 -29 -98 -40 -24 -11 -66 -24 -94 -29 -59
-12 -99 -35 -147 -84 -19 -19 -59 -45 -90 -57 -69 -27 -91 -45 -91 -74 0 -33
19 -43 96 -54 38 -6 112 -19 164 -31 114 -24 203 -25 302 -5 l73 15 99 102
c55 57 122 117 150 134 64 38 85 76 64 113 -12 23 -20 26 -58 23 -83 -6 -235
-5 -275 1 -27 4 -57 -1 -95 -14z"/>
<path d="M3931 3551 c-53 -54 -106 -98 -138 -115 -29 -14 -53 -30 -53 -34 0
-5 -29 -27 -64 -49 -57 -37 -90 -71 -172 -182 -56 -78 -92 -120 -136 -165 -57
-56 -86 -103 -127 -204 -16 -41 -54 -106 -85 -146 -65 -85 -80 -119 -66 -147
15 -27 44 -24 93 9 23 16 119 74 213 130 189 111 280 180 396 298 87 89 110
133 182 343 25 74 62 157 86 195 60 94 55 156 -13 156 -24 0 -45 -16 -116 -89z"/>
<path d="M6172 3350 c-12 -5 -27 -21 -34 -35 -10 -21 -6 -36 29 -112 22 -49
62 -139 88 -201 26 -62 65 -140 87 -173 49 -74 185 -199 236 -218 22 -8 110
-16 217 -21 126 -5 193 -12 224 -24 63 -23 104 -21 140 9 60 51 49 97 -33 144
-62 36 -99 75 -117 126 -7 19 -21 37 -30 40 -9 3 -23 20 -30 37 -15 38 -66 98
-83 98 -6 0 -29 14 -50 30 -22 17 -45 30 -52 30 -18 0 -100 55 -150 100 -43
40 -107 65 -191 75 -37 5 -72 20 -120 50 -79 50 -100 57 -131 45z"/>
</g>
</svg>
